<svg width="355" height="94" viewBox="0 0 355 94" fill="none" xmlns="http://www.w3.org/2000/svg">
<path d="M283.354 26.2661V38.3623H245.208V26.2661H283.354ZM254.626 10.3682H270.264V72.6638C270.264 74.7662 270.581 76.3791 271.215 77.5023C271.877 78.5967 272.741 79.3455 273.807 79.7487C274.872 80.1519 276.053 80.3535 277.349 80.3535C278.328 80.3535 279.221 80.2815 280.028 80.1375C280.863 79.9935 281.496 79.8639 281.928 79.7487L284.564 91.9745C283.728 92.2626 282.533 92.5794 280.978 92.925C279.452 93.2706 277.58 93.4722 275.362 93.5298C271.445 93.645 267.917 93.0546 264.778 91.7585C261.638 90.4337 259.147 88.3889 257.304 85.624C255.49 82.8592 254.597 79.4031 254.626 75.2558V10.3682Z" fill="#8B5CF6"/>
<path d="M237.972 26.2661V38.3623H198.745V26.2661H237.972ZM208.552 92.6225V20.002C208.552 15.5379 209.473 11.8226 211.317 8.85617C213.189 5.88971 215.694 3.67207 218.834 2.20324C221.973 0.734415 225.458 0 229.288 0C231.996 0 234.4 0.216006 236.503 0.648017C238.605 1.08002 240.16 1.46883 241.168 1.81444L238.058 13.9107C237.396 13.7091 236.56 13.5075 235.552 13.3058C234.544 13.0754 233.421 12.9602 232.183 12.9602C229.274 12.9602 227.215 13.6659 226.005 15.0771C224.824 16.4595 224.234 18.4467 224.234 21.0388V92.6225H208.552Z" fill="#8B5CF6"/>
<path d="M153.6 93.9618C149.396 93.9618 145.608 93.213 142.239 91.7153C138.898 90.1889 136.248 87.9425 134.29 84.976C132.36 82.0096 131.395 78.3519 131.395 74.003C131.395 70.2589 132.086 67.1629 133.469 64.7148C134.851 62.2668 136.738 60.3083 139.128 58.8395C141.519 57.3707 144.212 56.2619 147.207 55.5131C150.231 54.7354 153.356 54.1738 156.581 53.8282C160.469 53.425 163.623 53.065 166.042 52.7482C168.462 52.4026 170.218 51.8842 171.313 51.193C172.436 50.473 172.998 49.3641 172.998 47.8665V47.6073C172.998 44.3529 172.033 41.8328 170.103 40.0472C168.174 38.2615 165.394 37.3687 161.765 37.3687C157.935 37.3687 154.897 38.2039 152.65 39.8744C150.432 41.5448 148.935 43.5176 148.157 45.7929L133.555 43.7192C134.707 39.6872 136.608 36.3175 139.258 33.6102C141.907 30.8742 145.148 28.8294 148.978 27.4757C152.808 26.0933 157.042 25.4021 161.679 25.4021C164.876 25.4021 168.058 25.7765 171.226 26.5253C174.394 27.2741 177.289 28.5126 179.91 30.2406C182.531 31.9398 184.633 34.2583 186.217 37.1959C187.83 40.1336 188.636 43.8056 188.636 48.2121V92.6226H173.602V83.5072H173.084C172.134 85.3504 170.794 87.0785 169.066 88.6913C167.367 90.2753 165.221 91.5569 162.629 92.5361C160.066 93.4866 157.057 93.9618 153.6 93.9618ZM157.661 82.4704C160.801 82.4704 163.522 81.8512 165.826 80.6127C168.13 79.3455 169.902 77.6751 171.14 75.6014C172.407 73.5278 173.041 71.267 173.041 68.8189V60.9996C172.551 61.4028 171.716 61.7772 170.535 62.1228C169.383 62.4684 168.087 62.7708 166.647 63.03C165.207 63.2892 163.781 63.5196 162.37 63.7212C160.959 63.9228 159.735 64.0956 158.698 64.2396C156.365 64.5564 154.277 65.0748 152.434 65.7949C150.591 66.5149 149.136 67.5229 148.071 68.8189C147.005 70.0861 146.472 71.7278 146.472 73.7438C146.472 76.6238 147.524 78.7983 149.626 80.2671C151.728 81.7359 154.407 82.4704 157.661 82.4704Z" fill="#8B5CF6"/>
<path d="M87.46 92.6226V26.2662H102.623V37.3256H103.315C104.524 33.4951 106.598 30.543 109.536 28.4694C112.502 26.367 115.886 25.3157 119.688 25.3157C120.552 25.3157 121.517 25.3589 122.582 25.4453C123.677 25.5029 124.584 25.6037 125.304 25.7477V40.1336C124.641 39.9032 123.59 39.7016 122.15 39.5288C120.739 39.3272 119.371 39.2264 118.046 39.2264C115.195 39.2264 112.632 39.8456 110.356 41.084C108.11 42.2937 106.339 43.9785 105.043 46.1385C103.747 48.2986 103.099 50.7898 103.099 53.6123V92.6226H87.46Z" fill="#8B5CF6"/>
<path d="M29.9814 92.6226H0V4.14731H30.5862C39.3703 4.14731 46.9161 5.91854 53.2234 9.46101C59.5595 12.9747 64.4268 18.0292 67.8253 24.6245C71.2237 31.2198 72.923 39.1112 72.923 48.2985C72.923 57.5147 71.2093 65.4349 67.7821 72.059C64.3836 78.6831 59.4731 83.7664 53.0506 87.3089C46.6569 90.8513 38.9671 92.6226 29.9814 92.6226ZM16.0275 78.7551H29.2037C35.3671 78.7551 40.508 77.6319 44.6264 75.3854C48.7449 73.1102 51.841 69.7261 53.9146 65.2333C55.9883 60.7116 57.0251 55.0667 57.0251 48.2985C57.0251 41.5304 55.9883 35.9143 53.9146 31.4502C51.841 26.9573 48.7737 23.6021 44.7128 21.3844C40.6808 19.138 35.6695 18.0148 29.679 18.0148H16.0275V78.7551Z" fill="#8B5CF6"/>
<path d="M354.366 92.623H339.202V80.829H338.51C337.013 84.544 334.55 87.5827 331.123 89.9442C327.725 92.3058 323.534 93.4872 318.552 93.4872L317.743 93.4755C313.993 93.37 310.628 92.526 307.65 90.9433L307.017 90.5927C303.705 88.6343 301.113 85.797 299.241 82.0819C297.369 78.338 296.433 73.8156 296.433 68.5165V65.7812H301.433V68.5165C301.433 73.2327 302.266 76.9439 303.706 79.8319L303.989 80.372C305.423 83.0112 307.274 84.9269 309.53 86.2685C312.015 87.7011 314.973 88.4872 318.552 88.4872C322.726 88.4872 325.868 87.508 328.27 85.8388L328.278 85.8329L328.287 85.8271C329.177 85.2135 329.971 84.5473 330.678 83.8319C328.721 84.4911 326.69 84.8358 324.6 84.8358C319.632 84.8358 315.223 83.1334 311.867 79.5253C308.506 75.9123 307.072 71.2443 307.072 66.0976V65.7812H312.072V66.0976C312.072 70.3022 313.224 73.6433 315.528 76.12C317.688 78.442 320.481 79.6761 323.907 79.8212L324.6 79.8358C326.76 79.8358 328.857 79.3415 330.89 78.3544L331.296 78.1503C333.456 77.0271 335.227 75.3569 336.61 73.1396C337.869 71.1344 338.565 68.6812 338.701 65.7812H343.941V87.6474H349.585V65.7812H354.366V92.623ZM301.433 60.1357H296.433V48.8466H301.433V60.1357ZM312.072 60.1357H307.072V48.8466H312.072V60.1357ZM343.941 60.1357H338.727V48.8466H343.941V60.1357ZM354.366 60.1357H349.585V48.8466H354.366V60.1357ZM312.072 43.2011H307.072V31.2665H301.433V43.2011H296.433V26.2665H312.072V43.2011ZM354.366 43.2011H349.585V31.2362H343.941V43.2011H338.727V26.2665H354.366V43.2011Z" fill="#8B5CF6"/>
</svg>
